G04 #@! TF.GenerationSoftware,KiCad,Pcbnew,6.0.11-2627ca5db0~126~ubuntu22.04.1*
G04 #@! TF.CreationDate,2023-02-05T11:24:23-03:00*
G04 #@! TF.ProjectId,ball_launcher_kicad,62616c6c-5f6c-4617-956e-636865725f6b,rev?*
G04 #@! TF.SameCoordinates,Original*
G04 #@! TF.FileFunction,Soldermask,Top*
G04 #@! TF.FilePolarity,Negative*
%FSLAX46Y46*%
G04 Gerber Fmt 4.6, Leading zero omitted, Abs format (unit mm)*
G04 Created by KiCad (PCBNEW 6.0.11-2627ca5db0~126~ubuntu22.04.1) date 2023-02-05 11:24:23*
%MOMM*%
%LPD*%
G01*
G04 APERTURE LIST*
G04 Aperture macros list*
%AMRoundRect*
0 Rectangle with rounded corners*
0 $1 Rounding radius*
0 $2 $3 $4 $5 $6 $7 $8 $9 X,Y pos of 4 corners*
0 Add a 4 corners polygon primitive as box body*
4,1,4,$2,$3,$4,$5,$6,$7,$8,$9,$2,$3,0*
0 Add four circle primitives for the rounded corners*
1,1,$1+$1,$2,$3*
1,1,$1+$1,$4,$5*
1,1,$1+$1,$6,$7*
1,1,$1+$1,$8,$9*
0 Add four rect primitives between the rounded corners*
20,1,$1+$1,$2,$3,$4,$5,0*
20,1,$1+$1,$4,$5,$6,$7,0*
20,1,$1+$1,$6,$7,$8,$9,0*
20,1,$1+$1,$8,$9,$2,$3,0*%
G04 Aperture macros list end*
%ADD10RoundRect,0.250000X-0.475000X0.250000X-0.475000X-0.250000X0.475000X-0.250000X0.475000X0.250000X0*%
%ADD11RoundRect,0.250000X0.262500X0.450000X-0.262500X0.450000X-0.262500X-0.450000X0.262500X-0.450000X0*%
%ADD12R,1.500000X1.500000*%
%ADD13C,1.500000*%
%ADD14R,1.550000X1.300000*%
%ADD15RoundRect,0.250000X0.325000X0.650000X-0.325000X0.650000X-0.325000X-0.650000X0.325000X-0.650000X0*%
%ADD16R,1.700000X1.700000*%
%ADD17O,1.700000X1.700000*%
%ADD18R,2.600000X2.600000*%
%ADD19C,2.600000*%
%ADD20RoundRect,0.250000X-0.262500X-0.450000X0.262500X-0.450000X0.262500X0.450000X-0.262500X0.450000X0*%
%ADD21RoundRect,0.250000X-0.650000X0.325000X-0.650000X-0.325000X0.650000X-0.325000X0.650000X0.325000X0*%
%ADD22R,3.000000X3.000000*%
%ADD23C,3.000000*%
%ADD24RoundRect,0.250000X0.475000X-0.250000X0.475000X0.250000X-0.475000X0.250000X-0.475000X-0.250000X0*%
%ADD25RoundRect,0.250000X0.450000X-0.262500X0.450000X0.262500X-0.450000X0.262500X-0.450000X-0.262500X0*%
%ADD26RoundRect,0.250000X-0.250000X-0.475000X0.250000X-0.475000X0.250000X0.475000X-0.250000X0.475000X0*%
%ADD27RoundRect,0.250000X0.250000X0.475000X-0.250000X0.475000X-0.250000X-0.475000X0.250000X-0.475000X0*%
%ADD28R,2.000000X1.905000*%
%ADD29O,2.000000X1.905000*%
%ADD30RoundRect,0.062500X-0.375000X-0.062500X0.375000X-0.062500X0.375000X0.062500X-0.375000X0.062500X0*%
%ADD31RoundRect,0.062500X-0.062500X-0.375000X0.062500X-0.375000X0.062500X0.375000X-0.062500X0.375000X0*%
%ADD32R,5.600000X5.600000*%
%ADD33RoundRect,0.250000X0.650000X-0.325000X0.650000X0.325000X-0.650000X0.325000X-0.650000X-0.325000X0*%
%ADD34R,2.200000X2.200000*%
%ADD35O,2.200000X2.200000*%
G04 APERTURE END LIST*
D10*
X218305000Y-113730000D03*
X218305000Y-115630000D03*
D11*
X264392500Y-98580000D03*
X262567500Y-98580000D03*
D10*
X231305000Y-109230000D03*
X231305000Y-111130000D03*
D12*
X249575000Y-126837500D03*
D13*
X252115000Y-126837500D03*
X269895000Y-126837500D03*
X272435000Y-126837500D03*
X272435000Y-101437500D03*
X269895000Y-101437500D03*
X267355000Y-101437500D03*
X264815000Y-101437500D03*
X262275000Y-101437500D03*
X259735000Y-101437500D03*
X257195000Y-101437500D03*
X254655000Y-101437500D03*
X252115000Y-101437500D03*
X249575000Y-101437500D03*
D14*
X227905000Y-130580000D03*
X235855000Y-130580000D03*
X235855000Y-126080000D03*
X227905000Y-126080000D03*
D15*
X220480000Y-108770000D03*
X217530000Y-108770000D03*
D10*
X225890000Y-119281252D03*
X225890000Y-121181252D03*
D16*
X240505000Y-114680000D03*
D17*
X240505000Y-117220000D03*
X240505000Y-119760000D03*
X240505000Y-122300000D03*
X240505000Y-124840000D03*
D18*
X271755000Y-155300000D03*
D19*
X276835000Y-155300000D03*
D10*
X229165000Y-119380000D03*
X229165000Y-121280000D03*
D20*
X216092500Y-130655000D03*
X217917500Y-130655000D03*
D21*
X219105000Y-98405000D03*
X219105000Y-101355000D03*
D19*
X178900000Y-116750000D03*
X178900000Y-144750000D03*
X201100000Y-130000000D03*
D22*
X196350000Y-105850000D03*
D23*
X183650000Y-105850000D03*
D24*
X214385000Y-123597500D03*
X214385000Y-121697500D03*
D20*
X219840000Y-126082500D03*
X221665000Y-126082500D03*
D16*
X216985000Y-126410000D03*
D17*
X214445000Y-126410000D03*
X211905000Y-126410000D03*
D24*
X211845000Y-123597500D03*
X211845000Y-121697500D03*
D20*
X223152500Y-101607500D03*
X224977500Y-101607500D03*
D22*
X273970000Y-134280000D03*
X273970000Y-144280000D03*
D25*
X240505000Y-111842500D03*
X240505000Y-110017500D03*
D26*
X222255000Y-108580000D03*
X224155000Y-108580000D03*
D27*
X219955000Y-111760000D03*
X218055000Y-111760000D03*
D10*
X220505000Y-116330000D03*
X220505000Y-118230000D03*
D28*
X245555000Y-131860000D03*
D29*
X245555000Y-134400000D03*
X245555000Y-136940000D03*
D18*
X243755000Y-155005000D03*
D19*
X248835000Y-155005000D03*
D16*
X210892500Y-98410000D03*
D17*
X213432500Y-98410000D03*
X215972500Y-98410000D03*
D30*
X222487500Y-111110000D03*
X222487500Y-111610000D03*
X222487500Y-112110000D03*
X222487500Y-112610000D03*
X222487500Y-113110000D03*
X222487500Y-113610000D03*
X222487500Y-114110000D03*
X222487500Y-114610000D03*
X222487500Y-115110000D03*
X222487500Y-115610000D03*
X222487500Y-116110000D03*
X222487500Y-116610000D03*
D31*
X223175000Y-117297500D03*
X223675000Y-117297500D03*
X224175000Y-117297500D03*
X224675000Y-117297500D03*
X225175000Y-117297500D03*
X225675000Y-117297500D03*
X226175000Y-117297500D03*
X226675000Y-117297500D03*
X227175000Y-117297500D03*
X227675000Y-117297500D03*
X228175000Y-117297500D03*
X228675000Y-117297500D03*
D30*
X229362500Y-116610000D03*
X229362500Y-116110000D03*
X229362500Y-115610000D03*
X229362500Y-115110000D03*
X229362500Y-114610000D03*
X229362500Y-114110000D03*
X229362500Y-113610000D03*
X229362500Y-113110000D03*
X229362500Y-112610000D03*
X229362500Y-112110000D03*
X229362500Y-111610000D03*
X229362500Y-111110000D03*
D31*
X228675000Y-110422500D03*
X228175000Y-110422500D03*
X227675000Y-110422500D03*
X227175000Y-110422500D03*
X226675000Y-110422500D03*
X226175000Y-110422500D03*
X225675000Y-110422500D03*
X225175000Y-110422500D03*
X224675000Y-110422500D03*
X224175000Y-110422500D03*
X223675000Y-110422500D03*
X223175000Y-110422500D03*
D32*
X225925000Y-113860000D03*
D21*
X213432500Y-101303748D03*
X213432500Y-104253748D03*
D33*
X272605000Y-98755000D03*
X272605000Y-95805000D03*
X267005000Y-98755000D03*
X267005000Y-95805000D03*
D34*
X261200000Y-134220000D03*
D35*
X261200000Y-144380000D03*
D18*
X213215000Y-155205000D03*
D19*
X218295000Y-155205000D03*
X223375000Y-155205000D03*
M02*
