M48
; DRILL file {KiCad 6.0.11-2627ca5db0~126~ubuntu22.04.1} date dom 05 fev 2023 11:25:35
; FORMAT={-:-/ absolute / metric / decimal}
; #@! TF.CreationDate,2023-02-05T11:25:35-03:00
; #@! TF.GenerationSoftware,Kicad,Pcbnew,6.0.11-2627ca5db0~126~ubuntu22.04.1
; #@! TF.FileFunction,Plated,1,2,PTH
FMAT,2
METRIC
; #@! TA.AperFunction,Plated,PTH,ViaDrill
T1C0.254
; #@! TA.AperFunction,Plated,PTH,ComponentDrill
T2C1.000
; #@! TA.AperFunction,Plated,PTH,ComponentDrill
T3C1.100
; #@! TA.AperFunction,Plated,PTH,ComponentDrill
T4C1.300
; #@! TA.AperFunction,Plated,PTH,ComponentDrill
T5C2.400
%
G90
G05
T1
X182.8Y-159.6
X183.3Y-99.1
X196.4Y-99.1
X196.7Y-159.7
X206.2Y-112.1
X208.5Y-132.7
X209.805Y-112.08
X213.505Y-112.08
X216.505Y-132.68
X216.555Y-117.93
X219.105Y-104.08
X221.005Y-128.48
X221.405Y-120.38
X226.505Y-103.98
X227.4Y-142.8
X227.605Y-121.28
X229.105Y-109.18
X231.405Y-115.28
X231.6Y-155.1
X233.405Y-111.98
X235.805Y-111.98
X238.205Y-96.78
X238.405Y-101.18
X238.405Y-103.98
X240.505Y-127.38
X276.805Y-97.58
T2
X210.892Y-98.41
X211.905Y-126.41
X213.433Y-98.41
X214.445Y-126.41
X215.972Y-98.41
X216.985Y-126.41
X240.505Y-114.68
X240.505Y-117.22
X240.505Y-119.76
X240.505Y-122.3
X240.505Y-124.84
X249.575Y-101.438
X249.575Y-126.837
X252.115Y-101.438
X252.115Y-126.837
X254.655Y-101.438
X257.195Y-101.438
X259.735Y-101.438
X262.275Y-101.438
X264.815Y-101.438
X267.355Y-101.438
X269.895Y-101.438
X269.895Y-126.837
X272.435Y-101.438
X272.435Y-126.837
T3
X245.555Y-131.86
X245.555Y-134.4
X245.555Y-136.94
X261.2Y-134.22
X261.2Y-144.38
T4
X213.215Y-155.205
X218.295Y-155.205
X223.375Y-155.205
X243.755Y-155.005
X248.835Y-155.005
X271.755Y-155.3
X276.835Y-155.3
T5
X183.65Y-105.85
X196.35Y-105.85
T0
M30
