G04 #@! TF.GenerationSoftware,KiCad,Pcbnew,6.0.11-2627ca5db0~126~ubuntu22.04.1*
G04 #@! TF.CreationDate,2023-02-05T11:24:23-03:00*
G04 #@! TF.ProjectId,ball_launcher_kicad,62616c6c-5f6c-4617-956e-636865725f6b,rev?*
G04 #@! TF.SameCoordinates,Original*
G04 #@! TF.FileFunction,Paste,Top*
G04 #@! TF.FilePolarity,Positive*
%FSLAX46Y46*%
G04 Gerber Fmt 4.6, Leading zero omitted, Abs format (unit mm)*
G04 Created by KiCad (PCBNEW 6.0.11-2627ca5db0~126~ubuntu22.04.1) date 2023-02-05 11:24:23*
%MOMM*%
%LPD*%
G01*
G04 APERTURE LIST*
G04 Aperture macros list*
%AMRoundRect*
0 Rectangle with rounded corners*
0 $1 Rounding radius*
0 $2 $3 $4 $5 $6 $7 $8 $9 X,Y pos of 4 corners*
0 Add a 4 corners polygon primitive as box body*
4,1,4,$2,$3,$4,$5,$6,$7,$8,$9,$2,$3,0*
0 Add four circle primitives for the rounded corners*
1,1,$1+$1,$2,$3*
1,1,$1+$1,$4,$5*
1,1,$1+$1,$6,$7*
1,1,$1+$1,$8,$9*
0 Add four rect primitives between the rounded corners*
20,1,$1+$1,$2,$3,$4,$5,0*
20,1,$1+$1,$4,$5,$6,$7,0*
20,1,$1+$1,$6,$7,$8,$9,0*
20,1,$1+$1,$8,$9,$2,$3,0*%
G04 Aperture macros list end*
%ADD10RoundRect,0.250000X-0.475000X0.250000X-0.475000X-0.250000X0.475000X-0.250000X0.475000X0.250000X0*%
%ADD11RoundRect,0.250000X0.262500X0.450000X-0.262500X0.450000X-0.262500X-0.450000X0.262500X-0.450000X0*%
%ADD12R,1.550000X1.300000*%
%ADD13RoundRect,0.250000X0.325000X0.650000X-0.325000X0.650000X-0.325000X-0.650000X0.325000X-0.650000X0*%
%ADD14RoundRect,0.250000X-0.262500X-0.450000X0.262500X-0.450000X0.262500X0.450000X-0.262500X0.450000X0*%
%ADD15RoundRect,0.250000X-0.650000X0.325000X-0.650000X-0.325000X0.650000X-0.325000X0.650000X0.325000X0*%
%ADD16RoundRect,0.250000X0.475000X-0.250000X0.475000X0.250000X-0.475000X0.250000X-0.475000X-0.250000X0*%
%ADD17R,3.000000X3.000000*%
%ADD18RoundRect,0.250000X0.450000X-0.262500X0.450000X0.262500X-0.450000X0.262500X-0.450000X-0.262500X0*%
%ADD19RoundRect,0.250000X-0.250000X-0.475000X0.250000X-0.475000X0.250000X0.475000X-0.250000X0.475000X0*%
%ADD20RoundRect,0.250000X0.250000X0.475000X-0.250000X0.475000X-0.250000X-0.475000X0.250000X-0.475000X0*%
%ADD21RoundRect,0.250000X-0.315000X-0.315000X0.315000X-0.315000X0.315000X0.315000X-0.315000X0.315000X0*%
%ADD22RoundRect,0.062500X-0.375000X-0.062500X0.375000X-0.062500X0.375000X0.062500X-0.375000X0.062500X0*%
%ADD23RoundRect,0.062500X-0.062500X-0.375000X0.062500X-0.375000X0.062500X0.375000X-0.062500X0.375000X0*%
%ADD24RoundRect,0.250000X0.650000X-0.325000X0.650000X0.325000X-0.650000X0.325000X-0.650000X-0.325000X0*%
G04 APERTURE END LIST*
D10*
X218305000Y-113730000D03*
X218305000Y-115630000D03*
D11*
X264392500Y-98580000D03*
X262567500Y-98580000D03*
D10*
X231305000Y-109230000D03*
X231305000Y-111130000D03*
D12*
X227905000Y-130580000D03*
X235855000Y-130580000D03*
X235855000Y-126080000D03*
X227905000Y-126080000D03*
D13*
X220480000Y-108770000D03*
X217530000Y-108770000D03*
D10*
X225890000Y-119281252D03*
X225890000Y-121181252D03*
X229165000Y-119380000D03*
X229165000Y-121280000D03*
D14*
X216092500Y-130655000D03*
X217917500Y-130655000D03*
D15*
X219105000Y-98405000D03*
X219105000Y-101355000D03*
D16*
X214385000Y-123597500D03*
X214385000Y-121697500D03*
D14*
X219840000Y-126082500D03*
X221665000Y-126082500D03*
D16*
X211845000Y-123597500D03*
X211845000Y-121697500D03*
D14*
X223152500Y-101607500D03*
X224977500Y-101607500D03*
D17*
X273970000Y-134280000D03*
X273970000Y-144280000D03*
D18*
X240505000Y-111842500D03*
X240505000Y-110017500D03*
D19*
X222255000Y-108580000D03*
X224155000Y-108580000D03*
D20*
X219955000Y-111760000D03*
X218055000Y-111760000D03*
D10*
X220505000Y-116330000D03*
X220505000Y-118230000D03*
D21*
X225225000Y-114560000D03*
X226625000Y-115960000D03*
X223825000Y-113160000D03*
X226625000Y-113160000D03*
X223825000Y-111760000D03*
X228025000Y-115960000D03*
X225225000Y-115960000D03*
X226625000Y-114560000D03*
X228025000Y-114560000D03*
X223825000Y-114560000D03*
X228025000Y-111760000D03*
X228025000Y-113160000D03*
X223825000Y-115960000D03*
X225225000Y-111760000D03*
X226625000Y-111760000D03*
X225225000Y-113160000D03*
D22*
X222487500Y-111110000D03*
X222487500Y-111610000D03*
X222487500Y-112110000D03*
X222487500Y-112610000D03*
X222487500Y-113110000D03*
X222487500Y-113610000D03*
X222487500Y-114110000D03*
X222487500Y-114610000D03*
X222487500Y-115110000D03*
X222487500Y-115610000D03*
X222487500Y-116110000D03*
X222487500Y-116610000D03*
D23*
X223175000Y-117297500D03*
X223675000Y-117297500D03*
X224175000Y-117297500D03*
X224675000Y-117297500D03*
X225175000Y-117297500D03*
X225675000Y-117297500D03*
X226175000Y-117297500D03*
X226675000Y-117297500D03*
X227175000Y-117297500D03*
X227675000Y-117297500D03*
X228175000Y-117297500D03*
X228675000Y-117297500D03*
D22*
X229362500Y-116610000D03*
X229362500Y-116110000D03*
X229362500Y-115610000D03*
X229362500Y-115110000D03*
X229362500Y-114610000D03*
X229362500Y-114110000D03*
X229362500Y-113610000D03*
X229362500Y-113110000D03*
X229362500Y-112610000D03*
X229362500Y-112110000D03*
X229362500Y-111610000D03*
X229362500Y-111110000D03*
D23*
X228675000Y-110422500D03*
X228175000Y-110422500D03*
X227675000Y-110422500D03*
X227175000Y-110422500D03*
X226675000Y-110422500D03*
X226175000Y-110422500D03*
X225675000Y-110422500D03*
X225175000Y-110422500D03*
X224675000Y-110422500D03*
X224175000Y-110422500D03*
X223675000Y-110422500D03*
X223175000Y-110422500D03*
D15*
X213432500Y-101303748D03*
X213432500Y-104253748D03*
D24*
X272605000Y-98755000D03*
X272605000Y-95805000D03*
X267005000Y-98755000D03*
X267005000Y-95805000D03*
M02*
